<svg xmlns="http://www.w3.org/2000/svg" width="50.72" height="35.501" viewBox="0 0 50.72 35.501">
  <path id="Icon_awesome-coffee" data-name="Icon awesome-coffee" d="M15.215,30.144H30.43a7.609,7.609,0,0,0,7.607-7.607h2.536a10.143,10.143,0,0,0,0-20.286H9.51a1.9,1.9,0,0,0-1.9,1.9V22.536A7.609,7.609,0,0,0,15.215,30.144ZM40.573,7.322a5.072,5.072,0,0,1,0,10.143H38.037V7.322Zm3.78,30.429H3.828c-3.772,0-4.834-5.072-2.853-5.072H47.2c1.981,0,.935,5.072-2.845,5.072Z" transform="translate(0.004 -2.25)"/>
</svg>
